# xmcd
#
# Track frame offsets:
#	150
#	19691
#	38445
#	56049
#	73625
#	97591
#	117221
#	133758
#	151711
#	166740
#
# Disc length: 2511 seconds
#
# Revision: 1
# Processed by: cddbd v1.5PL3 Copyright (c) Steve Scherf et al.
# Submitted via: EasyCDDAExtractor 6.2.0.3
#
DISCID=6d09cd0a
DTITLE=John Mayer - Pickin' on John Mayer
DYEAR=2003
DGENRE=
TTITLE0=Your Body Is A Wonderland
TTITLE1=Neon
TTITLE2=No Such Thing
TTITLE3=Why Georgia
TTITLE4=St. Patrick's Day
TTITLE5=Back To You
TTITLE6=My Stupid Mouth
TTITLE7=City Love
TTITLE8=Love Soon
TTITLE9=Two Buck Chuch
EXTD=
EXTT0=
EXTT1=
EXTT2=
EXTT3=
EXTT4=
EXTT5=
EXTT6=
EXTT7=
EXTT8=
EXTT9=
PLAYORDER=
